<svg width="2603" height="141" viewBox="0 0 2603 141" fill="none" xmlns="http://www.w3.org/2000/svg">
<path fill-rule="evenodd" clip-rule="evenodd" d="M2335.38 52.06C2332.92 51.9753 2330.41 51.9792 2327.85 52.0783C2327.57 52.0889 2327.34 51.8739 2327.33 51.598C2327.32 51.322 2327.53 51.0897 2327.81 51.079C2330.39 50.979 2332.93 50.9751 2335.41 51.0606C2335.69 51.0701 2335.9 51.3016 2335.89 51.5775C2335.88 51.8535 2335.65 52.0695 2335.38 52.06ZM2342.44 52.051C2342.47 51.7766 2342.72 51.5787 2342.99 51.609C2345.55 51.8915 2348.06 52.2685 2350.52 52.7319C2350.79 52.7829 2350.97 53.0442 2350.92 53.3156C2350.87 53.587 2350.61 53.7657 2350.34 53.7147C2347.9 53.2558 2345.41 52.8826 2342.89 52.603C2342.61 52.5726 2342.41 52.3255 2342.44 52.051ZM2320.77 52.0799C2320.8 52.3545 2320.6 52.601 2320.32 52.6305C2319.09 52.7634 2317.83 52.9181 2316.57 53.0952C2315.12 53.2986 2313.72 53.5274 2312.39 53.7798C2312.12 53.8312 2311.86 53.6529 2311.81 53.3816C2311.76 53.1102 2311.93 52.8486 2312.21 52.7972C2313.55 52.5417 2314.96 52.3104 2316.43 52.1048C2317.71 51.9263 2318.97 51.7703 2320.22 51.6362C2320.49 51.6067 2320.74 51.8054 2320.77 52.0799ZM2601.88 52.2793C2602.06 52.4912 2602.03 52.8065 2601.82 52.9836C2600.82 53.8198 2599.8 54.6668 2598.76 55.5229C2598.55 55.6984 2598.23 55.6678 2598.06 55.4547C2597.88 55.2415 2597.91 54.9264 2598.12 54.7508C2599.16 53.8965 2600.18 53.0511 2601.18 52.2163C2601.39 52.0393 2601.71 52.0675 2601.88 52.2793ZM2357.33 54.7646C2357.4 54.4976 2357.68 54.3382 2357.94 54.4087C2360.4 55.0572 2362.83 55.7882 2365.23 56.5929C2365.49 56.6807 2365.63 56.9641 2365.54 57.2259C2365.46 57.4878 2365.17 57.6288 2364.91 57.541C2362.53 56.7428 2360.13 56.0182 2357.69 55.3756C2357.42 55.3052 2357.26 55.0317 2357.33 54.7646ZM2304.55 55.207C2304.64 55.4696 2304.49 55.7518 2304.23 55.8375C2301.25 56.8086 2298.7 57.9305 2296.52 59.1659C2296.28 59.3019 2295.97 59.2174 2295.84 58.9771C2295.7 58.7368 2295.78 58.4317 2296.02 58.2956C2298.27 57.0234 2300.89 55.8759 2303.92 54.8868C2304.18 54.8012 2304.47 54.9445 2304.55 55.207ZM2371.71 59.4978C2371.81 59.2414 2372.11 59.1167 2372.36 59.2192C2374.7 60.1556 2377.03 61.156 2379.34 62.2117C2379.59 62.3262 2379.71 62.6227 2379.59 62.874C2379.48 63.1253 2379.18 63.2361 2378.93 63.1216C2376.62 62.0718 2374.31 61.0777 2371.99 60.1477C2371.73 60.0451 2371.61 59.7542 2371.71 59.4978ZM2592.65 59.8292C2592.82 60.0454 2592.79 60.3599 2592.57 60.5317C2590.53 62.1513 2588.43 63.7889 2586.27 65.4328C2586.05 65.6001 2585.74 65.5577 2585.57 65.3381C2585.41 65.1184 2585.45 64.8047 2585.67 64.6373C2587.82 62.9979 2589.91 61.3645 2591.95 59.7488C2592.16 59.577 2592.48 59.613 2592.65 59.8292ZM2289.95 63.5508C2290.16 63.7365 2290.17 64.0527 2289.99 64.2571C2287.95 66.4999 2286.64 68.9092 2285.89 71.3618C2285.81 71.6258 2285.53 71.7741 2285.26 71.6931C2285 71.6121 2284.85 71.3324 2284.93 71.0685C2285.73 68.4758 2287.11 65.937 2289.25 63.5848C2289.43 63.3804 2289.75 63.3652 2289.95 63.5508ZM2385.52 65.7151C2385.64 65.4682 2385.94 65.3683 2386.19 65.492C2388.43 66.6149 2390.67 67.7821 2392.92 68.9857C2393.17 69.1159 2393.26 69.4189 2393.13 69.6624C2393 69.9059 2392.7 69.9978 2392.45 69.8675C2390.21 68.6674 2387.97 67.5044 2385.74 66.3861C2385.49 66.2624 2385.39 65.962 2385.52 65.7151ZM2579.99 69.4951C2580.15 69.7185 2580.1 70.0312 2579.88 70.1934C2577.75 71.7351 2575.58 73.2725 2573.36 74.7959C2573.14 74.9523 2572.82 74.8946 2572.67 74.667C2572.51 74.4395 2572.57 74.1282 2572.8 73.9718C2575.01 72.4535 2577.17 70.9211 2579.29 69.3842C2579.51 69.222 2579.82 69.2716 2579.99 69.4951ZM2398.9 72.8185C2399.03 72.5773 2399.34 72.4907 2399.58 72.6252C2401.76 73.8421 2403.96 75.0857 2406.18 76.3488C2406.42 76.4854 2406.51 76.7906 2406.37 77.0306C2406.23 77.2707 2405.93 77.3545 2405.69 77.218C2403.47 75.9556 2401.27 74.7136 2399.09 73.4987C2398.85 73.3643 2398.76 73.0598 2398.9 72.8185ZM2566.87 78.5308C2567.02 78.7628 2566.96 79.0723 2566.72 79.2221C2564.51 80.6543 2562.25 82.0649 2559.96 83.4454C2559.72 83.5877 2559.41 83.5114 2559.27 83.2748C2559.13 83.0382 2559.2 82.7309 2559.44 82.5886C2561.72 81.2138 2563.97 79.8088 2566.18 78.382C2566.41 78.2322 2566.72 78.2988 2566.87 78.5308ZM2284.22 79.6303C2281.75 79.3863 2279.15 79.408 2276.42 79.6512C2276.15 79.6758 2275.91 79.4727 2275.88 79.1977C2275.86 78.9226 2276.06 78.6797 2276.34 78.6552C2279.11 78.4071 2281.78 78.3839 2284.33 78.6363C2284.58 78.6615 2284.78 78.8725 2284.78 79.1212C2285 79.1485 2285.19 79.3254 2285.22 79.559C2285.55 82.4036 2286.41 85.1279 2287.54 87.5256C2287.65 87.7756 2287.55 88.0733 2287.3 88.1905C2287.05 88.3077 2286.75 88.2 2286.63 87.9499C2285.47 85.4696 2284.57 82.6419 2284.22 79.6762C2284.22 79.6608 2284.22 79.6455 2284.22 79.6303ZM2080.87 80.8439C2078.2 80.6417 2075.55 80.6075 2072.94 80.7165C2072.66 80.728 2072.43 80.5136 2072.42 80.2377C2072.41 79.9618 2072.62 79.7288 2072.9 79.7173C2075.55 79.6069 2078.23 79.6414 2080.94 79.8467C2081.22 79.8676 2081.42 80.1077 2081.4 80.3831C2081.38 80.6584 2081.14 80.8647 2080.87 80.8439ZM2269.05 80.2465C2269.11 80.5168 2268.93 80.7815 2268.66 80.8376C2266.19 81.3504 2263.64 81.99 2261.02 82.7289C2260.75 82.8037 2260.48 82.6489 2260.4 82.3831C2260.33 82.1173 2260.48 81.8411 2260.75 81.7663C2263.39 81.0226 2265.96 80.377 2268.46 79.8585C2268.73 79.8024 2268.99 79.9761 2269.05 80.2465ZM2412.07 80.287C2412.21 80.0471 2412.52 79.9637 2412.76 80.1005C2414.92 81.337 2417.12 82.5852 2419.34 83.8394C2419.58 83.975 2419.67 84.2799 2419.53 84.5205C2419.39 84.761 2419.09 84.8461 2418.85 84.7105C2416.62 83.455 2414.43 82.2058 2412.26 80.9691C2412.02 80.8322 2411.94 80.5268 2412.07 80.287ZM2291.49 80.7545C2291.59 80.4978 2291.88 80.3723 2292.14 80.4742C2293.39 80.9686 2294.59 81.5613 2295.76 82.2603C2296.8 82.8829 2297.75 83.4888 2298.63 84.0772C2298.86 84.2308 2298.92 84.5413 2298.77 84.7708C2298.62 85.0003 2298.31 85.0619 2298.08 84.9084C2297.21 84.33 2296.27 83.733 2295.24 83.1178C2294.13 82.4474 2292.97 81.8786 2291.77 81.4037C2291.51 81.3018 2291.39 81.0112 2291.49 80.7545ZM2065.46 80.9C2065.5 81.1733 2065.32 81.4272 2065.04 81.4671C2062.41 81.8515 2059.81 82.3599 2057.24 82.9656C2056.97 83.0289 2056.7 82.8623 2056.64 82.5935C2056.58 82.3247 2056.74 82.0555 2057.01 81.9922C2059.61 81.3807 2062.24 80.8666 2064.9 80.4776C2065.17 80.4377 2065.42 80.6268 2065.46 80.9ZM2088.32 81.3395C2088.37 81.0689 2088.64 80.8939 2088.91 80.9488C2091.47 81.4684 2094.06 82.156 2096.68 83.0319C2096.94 83.1197 2097.08 83.4031 2096.99 83.6649C2096.9 83.9267 2096.62 84.0678 2096.36 83.9801C2093.78 83.1174 2091.23 82.4404 2088.71 81.9289C2088.44 81.874 2088.26 81.6102 2088.32 81.3395ZM2253.79 84.4076C2253.87 84.6701 2253.73 84.9523 2253.47 85.0379C2251.03 85.8339 2248.53 86.6867 2245.99 87.5771C2245.73 87.6682 2245.44 87.5308 2245.35 87.2702C2245.26 87.0095 2245.39 86.7243 2245.66 86.6331C2248.21 85.7413 2250.71 84.8861 2253.16 84.0872C2253.42 84.0016 2253.7 84.145 2253.79 84.4076ZM2049.9 84.4351C2049.98 84.6991 2049.84 84.9789 2049.57 85.0601C2047.02 85.8438 2044.51 86.699 2042.02 87.5976C2041.76 87.6915 2041.47 87.557 2041.38 87.2973C2041.29 87.0376 2041.42 86.751 2041.68 86.6572C2044.18 85.7542 2046.71 84.8936 2049.28 84.1043C2049.54 84.0231 2049.82 84.1712 2049.9 84.4351ZM2103.47 86.2723C2103.59 86.0224 2103.89 85.915 2104.14 86.0324C2105.33 86.5937 2106.53 87.1968 2107.74 87.8435C2108.97 88.5055 2110.2 89.1462 2111.43 89.7659C2111.68 89.8901 2111.78 90.1907 2111.65 90.4374C2111.53 90.684 2111.23 90.7833 2110.98 90.6592C2109.74 90.0354 2108.5 89.3906 2107.26 88.7244C2106.08 88.0861 2104.89 87.4911 2103.71 86.9375C2103.46 86.82 2103.36 86.5222 2103.47 86.2723ZM2553.24 86.7624C2553.38 87.0039 2553.29 87.3082 2553.05 87.4423C2550.73 88.7293 2548.38 89.9793 2546 91.1841C2545.75 91.3087 2545.45 91.21 2545.33 90.9636C2545.2 90.7171 2545.3 90.4163 2545.55 90.2917C2547.92 89.093 2550.26 87.8491 2552.56 86.568C2552.8 86.4339 2553.11 86.521 2553.24 86.7624ZM2425.28 87.7244C2425.41 87.4824 2425.72 87.394 2425.96 87.527C2428.14 88.7258 2430.35 89.9246 2432.61 91.1185C2432.85 91.2477 2432.95 91.5503 2432.82 91.7943C2432.69 92.0384 2432.38 92.1315 2432.14 92.0023C2429.88 90.8056 2427.66 89.6043 2425.48 88.4034C2425.23 88.2704 2425.15 87.9664 2425.28 87.7244ZM2303.26 88.3308C2303.46 88.1385 2303.77 88.1433 2303.97 88.3416C2305.2 89.6173 2305.99 90.8115 2306.27 91.9117C2306.56 93.0494 2306.3 94.0649 2305.52 94.8788C2305.32 95.0779 2305.01 95.0842 2304.81 94.8929C2304.61 94.7015 2304.6 94.385 2304.8 94.1859C2305.33 93.6318 2305.51 92.9753 2305.3 92.1583C2305.08 91.3039 2304.43 90.2607 2303.25 89.0378C2303.06 88.8396 2303.06 88.523 2303.26 88.3308ZM2238.83 89.5841C2238.92 89.8441 2238.79 90.1303 2238.53 90.2233L2237.83 90.4707C2235.61 91.2648 2233.36 92.071 2231.07 92.8775C2230.81 92.9694 2230.53 92.8327 2230.44 92.5723C2230.34 92.3119 2230.48 92.0263 2230.74 91.9344C2233.02 91.1285 2235.28 90.3227 2237.5 89.5282L2238.19 89.2816C2238.45 89.1887 2238.74 89.3241 2238.83 89.5841ZM2034.85 89.7797C2034.95 90.0365 2034.82 90.3269 2034.57 90.4282C2032.29 91.3266 2030.04 92.2373 2027.81 93.1376C2027.6 93.2261 2027.38 93.3144 2027.16 93.4027C2026.9 93.5063 2026.61 93.3828 2026.51 93.1268C2026.41 92.8708 2026.53 92.5793 2026.78 92.4757C2027 92.3876 2027.22 92.2994 2027.44 92.211C2029.66 91.3108 2031.92 90.3983 2034.2 89.498C2034.46 89.3967 2034.75 89.5228 2034.85 89.7797ZM2118.31 93.5615C2118.42 93.3083 2118.71 93.1925 2118.97 93.3028C2121.54 94.4255 2124.12 95.4582 2126.68 96.4036C2126.94 96.499 2127.08 96.7864 2126.98 97.0455C2126.89 97.3047 2126.6 97.4374 2126.34 97.342C2123.75 96.3899 2121.16 95.35 2118.57 94.2196C2118.31 94.1093 2118.2 93.8146 2118.31 93.5615ZM2539.05 93.9755C2539.16 94.227 2539.05 94.5233 2538.8 94.6374C2536.38 95.7358 2533.93 96.7818 2531.45 97.7674C2531.2 97.8696 2530.9 97.7444 2530.8 97.4879C2530.7 97.2313 2530.83 96.9405 2531.08 96.8384C2533.54 95.8588 2535.98 94.8189 2538.39 93.7267C2538.64 93.6126 2538.93 93.724 2539.05 93.9755ZM2291.52 94.3616C2291.71 94.1621 2292.03 94.1553 2292.23 94.3462C2292.88 94.9696 2293.5 95.4474 2294.07 95.7669C2294.64 96.0893 2295.12 96.2324 2295.5 96.2324C2296.71 96.2324 2297.82 96.1864 2298.82 96.0966C2299.1 96.0719 2299.34 96.2748 2299.36 96.5499C2299.39 96.8249 2299.18 97.0679 2298.91 97.0926C2297.87 97.1855 2296.74 97.2324 2295.5 97.2324C2294.89 97.2324 2294.23 97.0066 2293.58 96.6383C2292.92 96.2671 2292.23 95.7324 2291.53 95.0686C2291.33 94.8776 2291.33 94.5611 2291.52 94.3616ZM2223.9 94.8339C2223.99 95.0955 2223.85 95.3792 2223.59 95.4676C2221.11 96.3048 2218.6 97.1287 2216.05 97.9257C2215.79 98.0083 2215.51 97.8616 2215.43 97.5981C2215.34 97.3346 2215.49 97.0541 2215.75 96.9715C2218.29 96.1771 2220.79 95.3555 2223.27 94.5201C2223.53 94.4318 2223.81 94.5722 2223.9 94.8339ZM2438.66 94.8162C2438.78 94.5697 2439.08 94.4707 2439.33 94.5951C2440.45 95.1604 2441.58 95.7234 2442.72 96.2835C2443.92 96.8738 2445.13 97.4353 2446.33 97.9687C2446.58 98.0807 2446.69 98.3761 2446.58 98.6285C2446.47 98.8809 2446.18 98.9948 2445.92 98.8829C2444.71 98.3442 2443.49 97.7772 2442.28 97.1812C2441.13 96.6194 2440 96.0548 2438.88 95.4879C2438.63 95.3635 2438.53 95.0628 2438.66 94.8162ZM2020.01 95.7201C2020.11 95.9775 2019.99 96.2672 2019.73 96.3671C2017.19 97.3538 2014.68 98.2858 2012.21 99.1237C2011.95 99.2124 2011.67 99.0724 2011.58 98.8109C2011.49 98.5494 2011.63 98.2655 2011.89 98.1767C2014.34 97.345 2016.83 96.4185 2019.37 95.4349C2019.62 95.335 2019.91 95.4626 2020.01 95.7201ZM2133.95 99.3773C2134.03 99.1129 2134.31 98.963 2134.58 99.0425C2137.26 99.8504 2139.94 100.565 2142.61 101.188C2142.88 101.251 2143.05 101.52 2142.99 101.789C2142.92 102.058 2142.65 102.225 2142.38 102.162C2139.69 101.534 2136.99 100.814 2134.29 100C2134.02 99.9206 2133.87 99.6418 2133.95 99.3773ZM2208.8 99.5724C2208.87 99.8382 2208.72 100.114 2208.45 100.189C2207.18 100.546 2205.91 100.893 2204.63 101.228C2203.28 101.582 2201.92 101.915 2200.56 102.227C2200.29 102.289 2200.02 102.121 2199.96 101.852C2199.9 101.583 2200.06 101.314 2200.33 101.253C2201.69 100.943 2203.03 100.612 2204.37 100.261C2205.65 99.9268 2206.92 99.5813 2208.18 99.2263C2208.45 99.1516 2208.73 99.3065 2208.8 99.5724ZM2524.27 99.8987C2524.36 100.16 2524.22 100.444 2523.96 100.533C2521.44 101.389 2518.89 102.178 2516.32 102.89C2516.06 102.964 2515.78 102.808 2515.71 102.542C2515.64 102.276 2515.79 102 2516.06 101.927C2518.6 101.22 2521.13 100.437 2523.64 99.5861C2523.9 99.4973 2524.18 99.6373 2524.27 99.8987ZM2453.04 101.191C2453.13 100.931 2453.42 100.794 2453.68 100.885C2456.21 101.773 2458.73 102.542 2461.26 103.2C2461.52 103.27 2461.68 103.543 2461.61 103.81C2461.54 104.077 2461.27 104.237 2461 104.168C2458.45 103.503 2455.9 102.726 2453.35 101.829C2453.09 101.737 2452.95 101.452 2453.04 101.191ZM2150.19 103.231C2150.24 102.958 2150.5 102.774 2150.77 102.82C2153.53 103.28 2156.28 103.645 2159.01 103.918C2159.29 103.946 2159.49 104.191 2159.46 104.466C2159.43 104.74 2159.19 104.941 2158.91 104.913C2156.16 104.638 2153.38 104.27 2150.6 103.806C2150.33 103.761 2150.15 103.503 2150.19 103.231ZM2192.75 103.268C2192.79 103.541 2192.61 103.798 2192.33 103.842C2189.58 104.292 2186.81 104.656 2184.02 104.931C2183.75 104.958 2183.5 104.757 2183.48 104.482C2183.45 104.207 2183.65 103.962 2183.92 103.935C2186.69 103.663 2189.44 103.302 2192.17 102.856C2192.44 102.811 2192.7 102.996 2192.75 103.268ZM2508.95 104.199C2509.01 104.469 2508.83 104.734 2508.56 104.792C2505.96 105.344 2503.33 105.812 2500.69 106.188C2500.42 106.227 2500.16 106.037 2500.13 105.764C2500.09 105.49 2500.28 105.237 2500.55 105.198C2503.17 104.825 2505.77 104.361 2508.36 103.813C2508.63 103.756 2508.89 103.929 2508.95 104.199ZM2166.79 104.955C2166.8 104.679 2167.03 104.463 2167.31 104.472C2170.1 104.566 2172.87 104.566 2175.63 104.477C2175.9 104.468 2176.13 104.685 2176.14 104.961C2176.15 105.237 2175.93 105.468 2175.66 105.477C2172.88 105.567 2170.09 105.566 2167.28 105.472C2167 105.462 2166.78 105.231 2166.79 104.955ZM2468.42 105.283C2468.46 105.011 2468.72 104.828 2469 104.876C2471.62 105.329 2474.23 105.668 2476.84 105.9C2477.11 105.924 2477.32 106.167 2477.29 106.442C2477.27 106.717 2477.03 106.92 2476.75 106.896C2474.12 106.662 2471.47 106.319 2468.82 105.861C2468.55 105.814 2468.37 105.555 2468.42 105.283ZM2493.2 106.499C2493.22 106.774 2493.01 107.013 2492.74 107.032C2490.09 107.216 2487.42 107.301 2484.75 107.28C2484.47 107.278 2484.25 107.052 2484.25 106.776C2484.25 106.5 2484.48 106.278 2484.75 106.28C2487.4 106.301 2490.04 106.216 2492.67 106.035C2492.95 106.015 2493.18 106.223 2493.2 106.499Z" fill="white"/>
<path fill-rule="evenodd" clip-rule="evenodd" d="M794.083 84.6997H800.617C801.068 84.6997 801.433 85.0654 801.433 85.5164V92.0497C801.433 92.5007 801.068 92.8664 800.617 92.8664H794.083C793.632 92.8664 793.267 92.5007 793.267 92.0497V85.5164C793.267 85.0654 793.632 84.6997 794.083 84.6997ZM794.9 91.233H799.8V86.333H794.9V91.233Z" fill="#228A41"/>
<path fill-rule="evenodd" clip-rule="evenodd" d="M814.5 70H803.883C803.432 70 803.067 70.3657 803.067 70.8167V76.5333H790.817C790.366 76.5333 790 76.899 790 77.35V118.183C790 118.634 790.366 119 790.817 119H814.5C814.951 119 815.317 118.634 815.317 118.183V80.6323C815.318 80.6953 815.326 80.7592 815.343 80.8228L825.143 118.389C825.198 118.6 825.334 118.78 825.523 118.889C825.711 118.998 825.934 119.028 826.144 118.971L838.394 115.704C838.827 115.589 839.086 115.145 838.974 114.711L829.174 77.1446C829.119 76.9341 828.983 76.7543 828.795 76.6446C828.607 76.5353 828.383 76.5054 828.173 76.5616L815.923 79.8283C815.563 79.9242 815.324 80.2458 815.317 80.6007V70.8167C815.317 70.3657 814.951 70 814.5 70ZM813.683 112.467H804.7V110.833H813.683V112.467ZM791.633 82.25H803.067V106.75H791.633V82.25ZM813.683 78.9833H804.7V76.5333H813.683V78.9833ZM791.633 108.383H803.067V110.833H791.633V108.383ZM804.7 109.2V80.6167H813.683V109.2H804.7ZM813.683 71.6333V74.9H804.7V71.6333H813.683ZM803.067 78.1667V80.6167H791.633V78.1667H803.067ZM791.633 112.467H803.067V117.367H791.633V112.467ZM804.7 117.367V114.1H813.683V117.367H804.7ZM818.43 86.185L829.102 83.3398L829.486 84.8097L818.815 87.6592L818.43 86.185ZM829.898 86.3943L834.635 104.563L823.967 107.41L819.23 89.2395L829.898 86.3943ZM835.051 106.144L835.887 109.349L825.215 112.194L824.382 108.991L835.051 106.144ZM827.8 78.3509L828.69 81.7603L818.018 84.6047L817.129 81.1969L827.8 78.3509ZM826.516 117.183L825.627 113.774L836.299 110.928L837.188 114.336L826.516 117.183Z" fill="#228A41"/>
<path fill-rule="evenodd" clip-rule="evenodd" d="M1761.27 100.416L1784.3 113.711C1786.26 114.84 1786.93 117.342 1785.8 119.299L1780.17 129.041C1779.04 130.997 1776.54 131.668 1774.58 130.538L1751.56 117.244C1749.6 116.114 1748.93 113.612 1750.06 111.656L1755.69 101.914C1756.81 99.9573 1759.32 99.2869 1761.27 100.416ZM1775.61 128.767C1776.59 129.331 1777.84 128.996 1778.4 128.018L1784.03 118.276C1784.59 117.298 1784.26 116.047 1783.28 115.482L1760.25 102.188C1759.27 101.623 1758.02 101.958 1757.46 102.936L1751.83 112.678C1751.27 113.657 1751.6 114.908 1752.58 115.472L1775.61 128.767Z" fill="#228A41"/>
<path fill-rule="evenodd" clip-rule="evenodd" d="M1804.68 94.7741L1805.57 95.2854C1807.52 96.4149 1808.19 98.9169 1807.06 100.873L1788.66 132.756C1787.53 134.713 1785.02 135.383 1783.07 134.254L1782.18 133.742L1781.16 135.513C1780.31 136.981 1778.44 137.484 1776.97 136.636L1745.09 118.229C1743.62 117.382 1743.11 115.505 1743.96 114.038L1744.98 112.267L1744.1 111.755C1742.14 110.626 1741.47 108.124 1742.6 106.167L1761.01 74.2844C1762.14 72.3281 1764.64 71.6577 1766.6 72.7872L1767.48 73.2985L1768.51 71.5272C1769.35 70.06 1771.23 69.5572 1772.7 70.4043L1773.58 70.9156L1775.63 67.3731C1776.19 66.3949 1777.44 66.0597 1778.42 66.6244L1783.74 69.6924C1784.71 70.2571 1785.05 71.5081 1784.48 72.4863L1782.44 76.0288L1794.84 83.1874L1796.88 79.6448C1797.45 78.6666 1798.7 78.3314 1799.68 78.8962L1804.99 81.9641C1805.97 82.5289 1806.3 83.7799 1805.74 84.7581L1803.69 88.3006L1804.58 88.8119C1806.05 89.6591 1806.55 91.5356 1805.7 93.0028L1804.68 94.7741ZM1781.62 89.7245L1783.39 90.7471C1784.86 91.5942 1785.36 93.4707 1784.51 94.938L1783.49 96.7093L1788.8 99.7772C1791.25 101.186 1794.37 100.348 1795.79 97.9056L1800.9 89.0492L1774.33 73.7095L1769.22 82.5659C1767.81 85.0123 1768.65 88.1363 1771.09 89.5507L1776.4 92.6187L1777.43 90.8474C1778.27 89.3801 1780.15 88.8773 1781.62 89.7245ZM1779.2 91.87L1776.13 97.1839C1775.85 97.673 1776.01 98.2985 1776.5 98.5808L1778.27 99.6035C1778.76 99.8859 1779.39 99.7183 1779.67 99.2292L1782.74 93.9153C1783.02 93.4263 1782.85 92.8008 1782.37 92.5184L1780.59 91.4957C1780.1 91.2134 1779.48 91.381 1779.2 91.87ZM1803.97 83.7354L1798.65 80.6675L1796.61 84.21L1801.92 87.278L1803.97 83.7354ZM1782.71 71.4636L1777.4 68.3957L1775.35 71.9383L1780.67 75.0062L1782.71 71.4636ZM1744.37 107.19C1743.81 108.168 1744.14 109.419 1745.12 109.984L1746.01 110.495L1766.46 75.0698L1765.57 74.5585C1764.6 73.9937 1763.35 74.3289 1762.78 75.3071L1744.37 107.19ZM1777.99 134.865C1778.48 135.148 1779.11 134.98 1779.39 134.491L1803.93 91.9802C1804.21 91.4911 1804.05 90.8656 1803.56 90.5832L1802.67 90.0719L1797.56 98.9283C1795.58 102.348 1791.2 103.52 1787.78 101.548L1782.47 98.4805L1781.44 100.252C1780.6 101.719 1778.72 102.222 1777.25 101.375L1775.48 100.352C1774.01 99.505 1773.51 97.6285 1774.36 96.1612L1775.38 94.39L1770.07 91.322C1766.65 89.3422 1765.47 84.9679 1767.45 81.5433L1772.56 72.6869L1771.67 72.1756C1771.18 71.8932 1770.56 72.0608 1770.28 72.5499L1745.73 115.061C1745.45 115.55 1745.62 116.175 1746.11 116.458L1777.99 134.865ZM1784.09 132.482C1785.07 133.047 1786.32 132.712 1786.88 131.734L1805.29 99.8506C1805.86 98.8725 1805.52 97.6215 1804.54 97.0567L1803.66 96.5454L1783.2 131.971L1784.09 132.482Z" fill="#228A41"/>
<path fill-rule="evenodd" clip-rule="evenodd" d="M621.182 75.2801V71H619.28V75.2801H615V77.1823H619.28V81.4624H621.182V77.1823H625.462V75.2801H621.182Z" fill="#FF8E3D"/>
<path fill-rule="evenodd" clip-rule="evenodd" d="M500.658 97.4267C500.658 98.2146 500.019 98.8534 499.231 98.8534C498.443 98.8534 497.804 98.2146 497.804 97.4267C497.804 96.6387 498.443 96 499.231 96C500.019 96 500.658 96.6387 500.658 97.4267ZM494 100.756H504.462V102.658H494V100.756ZM499.231 107.413C500.019 107.413 500.658 106.775 500.658 105.987C500.658 105.199 500.019 104.56 499.231 104.56C498.443 104.56 497.804 105.199 497.804 105.987C497.804 106.775 498.443 107.413 499.231 107.413Z" fill="#FF8E3D"/>
<path fill-rule="evenodd" clip-rule="evenodd" d="M713.751 97.7983C713.471 98.0779 713.471 98.5312 713.751 98.8107C714.031 99.0903 714.484 99.0903 714.763 98.8107C715.043 98.5312 715.043 98.0779 714.763 97.7983C714.484 97.5187 714.031 97.5187 713.751 97.7983ZM712.404 100.158C711.38 99.1343 711.38 97.4747 712.404 96.4511C713.427 95.4275 715.087 95.4275 716.111 96.4511C717.134 97.4747 717.134 99.1343 716.111 100.158C715.087 101.182 713.427 101.182 712.404 100.158ZM710.945 107.8L722.8 95.9449L724.147 97.292L712.292 109.147L710.945 107.8ZM720.43 107.416C720.144 107.131 720.144 106.668 720.43 106.382C720.715 106.097 721.178 106.097 721.464 106.382C721.749 106.668 721.749 107.131 721.464 107.416C721.178 107.702 720.715 107.702 720.43 107.416ZM719.083 105.035C718.053 106.065 718.053 107.734 719.083 108.763C720.112 109.793 721.781 109.793 722.811 108.763C723.84 107.734 723.84 106.065 722.811 105.035C721.781 104.006 720.112 104.006 719.083 105.035Z" fill="#FF8E3D"/>
<path fill-rule="evenodd" clip-rule="evenodd" d="M243.751 90.7983C243.471 91.0779 243.471 91.5312 243.751 91.8107C244.031 92.0903 244.484 92.0903 244.763 91.8107C245.043 91.5312 245.043 91.0779 244.763 90.7983C244.484 90.5187 244.031 90.5187 243.751 90.7983ZM242.404 93.1579C241.38 92.1343 241.38 90.4747 242.404 89.4511C243.427 88.4275 245.087 88.4275 246.111 89.4511C247.134 90.4747 247.134 92.1343 246.111 93.1579C245.087 94.1815 243.427 94.1815 242.404 93.1579ZM240.945 100.8L252.8 88.9449L254.147 90.292L242.292 102.147L240.945 100.8ZM250.43 100.416C250.144 100.131 250.144 99.6678 250.43 99.3823C250.715 99.0968 251.178 99.0968 251.464 99.3823C251.749 99.6678 251.749 100.131 251.464 100.416C251.178 100.702 250.715 100.702 250.43 100.416ZM249.083 98.0351C248.053 99.0646 248.053 100.734 249.083 101.763C250.112 102.793 251.781 102.793 252.811 101.763C253.84 100.734 253.84 99.0646 252.811 98.0351C251.781 97.0056 250.112 97.0056 249.083 98.0351Z" fill="#FF8E3D"/>
<path fill-rule="evenodd" clip-rule="evenodd" d="M135.182 74.2801V70H133.28V74.2801H129V76.1823H133.28V80.4624H135.182V76.1823H139.462V74.2801H135.182Z" fill="#FF8E3D"/>
<path fill-rule="evenodd" clip-rule="evenodd" d="M14.6579 97.4267C14.6579 98.2146 14.0191 98.8534 13.2312 98.8534C12.4432 98.8534 11.8045 98.2146 11.8045 97.4267C11.8045 96.6387 12.4432 96 13.2312 96C14.0191 96 14.6579 96.6387 14.6579 97.4267ZM8 100.756H18.4624V102.658H8V100.756ZM13.2312 107.413C14.0191 107.413 14.6579 106.775 14.6579 105.987C14.6579 105.199 14.0191 104.56 13.2312 104.56C12.4432 104.56 11.8045 105.199 11.8045 105.987C11.8045 106.775 12.4432 107.413 13.2312 107.413Z" fill="#FF8E3D"/>
<path fill-rule="evenodd" clip-rule="evenodd" d="M1702.4 65.0528L1699.37 62.0263L1698.03 63.3714L1701.05 66.3979L1698.03 69.4244L1699.37 70.7695L1702.4 67.743L1705.42 70.7694L1706.77 69.4243L1703.74 66.3979L1706.77 63.3715L1705.42 62.0264L1702.4 65.0528Z" fill="#FF8E3D"/>
<path fill-rule="evenodd" clip-rule="evenodd" d="M1910.75 76.7983C1910.47 77.0779 1910.47 77.5312 1910.75 77.8107C1911.03 78.0903 1911.48 78.0903 1911.76 77.8107C1912.04 77.5312 1912.04 77.0779 1911.76 76.7983C1911.48 76.5187 1911.03 76.5187 1910.75 76.7983ZM1909.4 79.1579C1908.38 78.1343 1908.38 76.4747 1909.4 75.4511C1910.43 74.4275 1912.09 74.4275 1913.11 75.4511C1914.13 76.4747 1914.13 78.1343 1913.11 79.1579C1912.09 80.1815 1910.43 80.1815 1909.4 79.1579ZM1907.95 86.8001L1919.8 74.9449L1921.15 76.292L1909.29 88.1472L1907.95 86.8001ZM1917.43 86.4161C1917.14 86.1307 1917.14 85.6678 1917.43 85.3823C1917.72 85.0968 1918.18 85.0968 1918.46 85.3823C1918.75 85.6678 1918.75 86.1307 1918.46 86.4161C1918.18 86.7016 1917.72 86.7016 1917.43 86.4161ZM1916.08 84.0351C1915.05 85.0646 1915.05 86.7338 1916.08 87.7633C1917.11 88.7928 1918.78 88.7928 1919.81 87.7633C1920.84 86.7338 1920.84 85.0646 1919.81 84.0351C1918.78 83.0056 1917.11 83.0056 1916.08 84.0351Z" fill="#FF8E3D"/>
<path fill-rule="evenodd" clip-rule="evenodd" d="M2168.4 85.0528L2165.37 82.0263L2164.03 83.3714L2167.05 86.3979L2164.03 89.4244L2165.37 90.7695L2168.4 87.743L2171.42 90.7694L2172.77 89.4243L2169.74 86.3979L2172.77 83.3715L2171.42 82.0264L2168.4 85.0528Z" fill="#FF8E3D"/>
<path fill-rule="evenodd" clip-rule="evenodd" d="M2363.75 97.7983C2363.47 98.0779 2363.47 98.5312 2363.75 98.8107C2364.03 99.0903 2364.48 99.0903 2364.76 98.8107C2365.04 98.5312 2365.04 98.0779 2364.76 97.7983C2364.48 97.5187 2364.03 97.5187 2363.75 97.7983ZM2362.4 100.158C2361.38 99.1343 2361.38 97.4747 2362.4 96.4511C2363.43 95.4275 2365.09 95.4275 2366.11 96.4511C2367.13 97.4747 2367.13 99.1343 2366.11 100.158C2365.09 101.182 2363.43 101.182 2362.4 100.158ZM2360.95 107.8L2372.8 95.9449L2374.15 97.292L2362.29 109.147L2360.95 107.8ZM2370.43 107.416C2370.14 107.131 2370.14 106.668 2370.43 106.382C2370.72 106.097 2371.18 106.097 2371.46 106.382C2371.75 106.668 2371.75 107.131 2371.46 107.416C2371.18 107.702 2370.72 107.702 2370.43 107.416ZM2369.08 105.035C2368.05 106.065 2368.05 107.734 2369.08 108.763C2370.11 109.793 2371.78 109.793 2372.81 108.763C2373.84 107.734 2373.84 106.065 2372.81 105.035C2371.78 104.006 2370.11 104.006 2369.08 105.035Z" fill="#FF8E3D"/>
<path fill-rule="evenodd" clip-rule="evenodd" d="M1777.32 48.0571C1774.86 47.8958 1772.35 48.0803 1769.8 48.5595C1769.53 48.6105 1769.27 48.4318 1769.22 48.1604C1769.17 47.889 1769.35 47.6277 1769.62 47.5767C1772.24 47.0841 1774.83 46.8918 1777.39 47.0592C1777.66 47.0772 1777.87 47.3152 1777.85 47.5908C1777.84 47.8663 1777.6 48.0751 1777.32 48.0571ZM1784.37 49.008C1784.47 48.7501 1784.76 48.6208 1785.01 48.7194C1786.21 49.1752 1787.39 49.7265 1788.56 50.3792C1789.71 51.0157 1790.87 51.6778 1792.05 52.3625C1792.29 52.501 1792.37 52.807 1792.24 53.0458C1792.1 53.2847 1791.79 53.3661 1791.55 53.2275C1790.38 52.5455 1789.22 51.8865 1788.08 51.2532C1786.95 50.6231 1785.81 50.092 1784.66 49.6535C1784.4 49.555 1784.27 49.266 1784.37 49.008ZM787.876 50.2761C785.416 50.1914 782.909 50.1953 780.345 50.2943C780.069 50.305 779.837 50.09 779.827 49.814C779.816 49.5381 780.031 49.3057 780.307 49.2951C782.894 49.1951 785.426 49.1911 787.91 49.2767C788.186 49.2862 788.402 49.5176 788.393 49.7936C788.383 50.0696 788.152 50.2856 787.876 50.2761ZM1762.79 50.0027C1762.89 50.2613 1762.76 50.5495 1762.5 50.6464C1760.21 51.5049 1757.89 52.549 1755.53 53.7439C1755.28 53.8687 1754.98 53.7703 1754.86 53.524C1754.73 53.2777 1754.83 52.9768 1755.08 52.8519C1757.46 51.6437 1759.82 50.5838 1762.15 49.71C1762.41 49.6131 1762.7 49.7442 1762.79 50.0027ZM794.943 50.2671C794.974 49.9926 795.221 49.7947 795.495 49.8251C798.05 50.1076 800.556 50.4846 803.023 50.9479C803.294 50.9989 803.473 51.2603 803.422 51.5317C803.371 51.803 803.109 51.9817 802.838 51.9307C800.396 51.4719 797.914 51.0987 795.385 50.819C795.111 50.7887 794.913 50.5416 794.943 50.2671ZM773.267 50.296C773.296 50.5706 773.098 50.817 772.823 50.8465C771.585 50.9795 770.334 51.1342 769.069 51.3112C767.616 51.5147 766.224 51.7435 764.892 51.9958C764.62 52.0472 764.359 51.8689 764.307 51.5976C764.256 51.3263 764.434 51.0647 764.706 51.0133C766.054 50.7578 767.462 50.5265 768.931 50.3209C770.206 50.1424 771.468 49.9864 772.716 49.8523C772.991 49.8228 773.237 50.0214 773.267 50.296ZM1054.38 50.4954C1054.56 50.7073 1054.53 51.0226 1054.32 51.1997C1053.32 52.0359 1052.3 52.8829 1051.26 53.7389C1051.05 53.9144 1050.73 53.8839 1050.56 53.6707C1050.38 53.4575 1050.41 53.1424 1050.62 52.9669C1051.66 52.1126 1052.68 51.2671 1053.68 50.4324C1053.89 50.2553 1054.21 50.2835 1054.38 50.4954ZM1547.17 50.8161C1547.17 50.5399 1547.4 50.3161 1547.67 50.3161C1549.05 50.3161 1550.4 50.3448 1551.73 50.4008C1552 50.4125 1552.22 50.6456 1552.21 50.9215C1552.2 51.1974 1551.96 51.4116 1551.69 51.3999C1550.38 51.3445 1549.04 51.3161 1547.67 51.3161C1547.4 51.3161 1547.17 51.0922 1547.17 50.8161ZM1559.21 51.5356C1559.25 51.2619 1559.5 51.0701 1559.77 51.1072C1562.53 51.4811 1565.17 51.9799 1567.7 52.5876C1567.96 52.6521 1568.13 52.9221 1568.06 53.1906C1568 53.4591 1567.73 53.6244 1567.46 53.5599C1564.97 52.9601 1562.36 52.4675 1559.64 52.0982C1559.36 52.0611 1559.17 51.8092 1559.21 51.5356ZM809.834 52.9807C809.904 52.7137 810.178 52.5543 810.445 52.6247C812.904 53.2732 815.329 54.0043 817.729 54.809C817.991 54.8968 818.132 55.1802 818.044 55.442C817.957 55.7038 817.673 55.8449 817.411 55.7571C815.031 54.9589 812.627 54.2343 810.19 53.5917C809.923 53.5213 809.763 53.2477 809.834 52.9807ZM757.051 53.4231C757.137 53.6856 756.993 53.9679 756.731 54.0536C753.755 55.0247 751.2 56.1466 749.017 57.382C748.777 57.518 748.472 57.4335 748.336 57.1931C748.2 56.9528 748.284 56.6477 748.525 56.5117C750.772 55.2395 753.389 54.092 756.42 53.1029C756.683 53.0172 756.965 53.1606 757.051 53.4231ZM1574.79 55.1855C1574.88 54.9253 1575.17 54.7891 1575.43 54.8814C1578.03 55.8023 1580.51 56.8379 1582.89 57.9653C1583.14 58.0833 1583.25 58.3814 1583.13 58.631C1583.01 58.8807 1582.71 58.9873 1582.46 58.8692C1580.11 57.7554 1577.66 56.7328 1575.1 55.8239C1574.84 55.7316 1574.7 55.4458 1574.79 55.1855ZM1798.27 56.6526C1798.41 56.4172 1798.72 56.3433 1798.95 56.4877C1801.18 57.8533 1803.46 59.2756 1805.77 60.7388C1806 60.8863 1806.07 61.1951 1805.93 61.4286C1805.78 61.662 1805.47 61.7316 1805.24 61.5841C1802.92 60.1225 1800.65 58.7027 1798.43 57.3402C1798.2 57.1959 1798.12 56.888 1798.27 56.6526ZM1749.02 56.7692C1749.16 57.0063 1749.08 57.3133 1748.84 57.4549C1746.7 58.7323 1744.54 60.1008 1742.35 61.5357C1742.12 61.6871 1741.81 61.6226 1741.66 61.3916C1741.51 61.1606 1741.57 60.8507 1741.8 60.6993C1744 59.2588 1746.18 57.8826 1748.33 56.5964C1748.57 56.4548 1748.87 56.5321 1749.02 56.7692ZM824.212 57.7138C824.314 57.4574 824.605 57.3327 824.862 57.4353C827.203 58.3717 829.527 59.3721 831.843 60.4277C832.095 60.5423 832.205 60.8388 832.091 61.0901C831.976 61.3413 831.68 61.4522 831.429 61.3377C829.125 60.2878 826.815 59.2938 824.49 58.3638C824.234 58.2612 824.109 57.9702 824.212 57.7138ZM1045.15 58.0453C1045.32 58.2615 1045.29 58.576 1045.07 58.7478C1043.03 60.3674 1040.93 62.005 1038.77 63.6489C1038.55 63.8162 1038.24 63.7738 1038.07 63.5541C1037.91 63.3345 1037.95 63.0207 1038.17 62.8534C1040.32 61.214 1042.42 59.5806 1044.45 57.9648C1044.66 57.7931 1044.98 57.8291 1045.15 58.0453ZM742.453 61.7669C742.657 61.9525 742.672 62.2687 742.487 62.4732C740.45 64.7159 739.14 67.1252 738.387 69.5779C738.306 69.8419 738.027 69.9902 737.763 69.9092C737.499 69.8282 737.35 69.5485 737.431 69.2845C738.227 66.6919 739.61 64.1531 741.746 61.8009C741.932 61.5965 742.248 61.5812 742.453 61.7669ZM1589.34 61.9219C1589.48 61.6836 1589.78 61.6037 1590.02 61.7433C1592.36 63.1167 1594.62 64.5664 1596.82 66.0644C1597.05 66.2199 1597.11 66.5309 1596.95 66.7591C1596.8 66.9874 1596.49 67.0464 1596.26 66.8909C1594.08 65.4033 1591.84 63.9661 1589.51 62.6061C1589.28 62.4665 1589.2 62.1602 1589.34 61.9219ZM838.018 63.9312C838.142 63.6843 838.442 63.5844 838.689 63.7081C840.931 64.831 843.173 65.9982 845.424 67.2018C845.668 67.332 845.759 67.635 845.629 67.8785C845.499 68.122 845.196 68.2138 844.953 68.0836C842.708 66.8835 840.474 65.7205 838.241 64.6022C837.994 64.4785 837.894 64.1781 838.018 63.9312ZM1736.1 65.1331C1736.26 65.3607 1736.2 65.672 1735.97 65.8284C1733.89 67.259 1731.79 68.7254 1729.67 70.2084C1729.44 70.3664 1729.13 70.3109 1728.97 70.0845C1728.81 69.858 1728.87 69.5463 1729.09 69.3883C1731.22 67.9056 1733.32 66.4372 1735.41 65.0043C1735.64 64.8479 1735.95 64.9056 1736.1 65.1331ZM1811.85 65.2048C1812 64.9722 1812.31 64.9044 1812.55 65.0533C1813.6 65.7265 1814.65 66.4037 1815.71 67.0847C1816.9 67.8462 1818.1 68.6123 1819.3 69.3823C1819.53 69.5312 1819.6 69.8404 1819.45 70.073C1819.3 70.3056 1818.99 70.3734 1818.76 70.2246C1817.56 69.4587 1816.37 68.6945 1815.19 67.9352C1814.12 67.2506 1813.06 66.57 1812.01 65.8955C1811.77 65.7466 1811.71 65.4373 1811.85 65.2048ZM1032.49 67.7111C1032.65 67.9346 1032.6 68.2473 1032.38 68.4095C1030.25 69.9511 1028.08 71.4885 1025.86 73.012C1025.64 73.1684 1025.33 73.1107 1025.17 72.8831C1025.01 72.6555 1025.07 72.3442 1025.3 72.1878C1027.51 70.6695 1029.67 69.1372 1031.79 67.6002C1032.01 67.438 1032.33 67.4877 1032.49 67.7111ZM1602.67 70.852C1602.83 70.6306 1603.14 70.5849 1603.37 70.75C1605.5 72.3382 1607.59 73.9483 1609.68 75.5496L1609.76 75.6129C1609.98 75.7811 1610.02 76.095 1609.85 76.314C1609.68 76.533 1609.37 76.5742 1609.15 76.4059L1609.06 76.3399C1606.98 74.7388 1604.89 73.134 1602.77 71.5517C1602.55 71.3867 1602.5 71.0734 1602.67 70.852ZM851.398 71.0346C851.533 70.7934 851.837 70.7068 852.079 70.8412C854.262 72.0582 856.461 73.3017 858.681 74.5649C858.921 74.7014 859.005 75.0067 858.869 75.2467C858.732 75.4867 858.427 75.5706 858.187 75.4341C855.968 74.1717 853.772 72.9297 851.592 71.7148C851.351 71.5803 851.264 71.2758 851.398 71.0346ZM1967.73 73.3208C1968.99 73.2794 1970.42 73.4652 1972.03 73.9046C1973.59 74.3311 1974.78 74.9399 1975.58 75.7309C1975.78 75.9253 1975.78 76.2419 1975.59 76.438C1975.39 76.6342 1975.07 76.6356 1974.88 76.4412C1974.25 75.8148 1973.24 75.2699 1971.77 74.8694C1970.23 74.45 1968.9 74.2828 1967.76 74.3202C1967.48 74.3293 1967.25 74.113 1967.24 73.837C1967.23 73.561 1967.45 73.3299 1967.73 73.3208ZM1825.38 73.8486C1825.53 73.6153 1825.84 73.5457 1826.07 73.6934C1828.32 75.1181 1830.59 76.5403 1832.87 77.9485C1833.1 78.0937 1833.17 78.4018 1833.03 78.6367C1832.88 78.8716 1832.58 78.9443 1832.34 78.7991C1830.06 77.3887 1827.79 75.9646 1825.53 74.5385C1825.3 74.3909 1825.23 74.082 1825.38 73.8486ZM1723.48 73.9028C1723.63 74.1302 1723.58 74.4415 1723.35 74.5982C1721.25 76.0474 1719.12 77.4932 1716.98 78.917C1716.74 79.0697 1716.43 79.0069 1716.28 78.7768C1716.13 78.5467 1716.19 78.2364 1716.42 78.0837C1718.56 76.6642 1720.68 75.2219 1722.78 73.7748C1723.01 73.6181 1723.32 73.6754 1723.48 73.9028ZM1019.37 76.7469C1019.52 76.9788 1019.46 77.2883 1019.22 77.4382C1017.01 78.8703 1014.75 80.2809 1012.46 81.6614C1012.22 81.8038 1011.91 81.7274 1011.77 81.4908C1011.63 81.2542 1011.7 80.947 1011.94 80.8046C1014.22 79.4299 1016.47 78.0249 1018.68 76.5981C1018.91 76.4483 1019.22 76.5149 1019.37 76.7469ZM736.721 77.8464C734.248 77.6024 731.647 77.6241 728.924 77.8673C728.649 77.8918 728.406 77.6888 728.382 77.4137C728.357 77.1387 728.56 76.8958 728.835 76.8712C731.613 76.6232 734.281 76.5999 736.831 76.8524C737.085 76.8775 737.276 77.0885 737.282 77.3373C737.505 77.3646 737.689 77.5415 737.717 77.7751C738.053 80.6197 738.914 83.344 740.037 85.7417C740.154 85.9917 740.047 86.2894 739.797 86.4066C739.547 86.5238 739.249 86.416 739.132 86.166C737.969 83.6857 737.074 80.858 736.724 77.8923C736.722 77.8769 736.721 77.8616 736.721 77.8464ZM721.551 78.4625C721.607 78.7329 721.433 78.9976 721.163 79.0537C718.692 79.5665 716.143 80.2061 713.519 80.9449C713.253 81.0198 712.977 80.865 712.902 80.5992C712.827 80.3334 712.982 80.0572 713.248 79.9824C715.889 79.2386 718.462 78.5931 720.959 78.0746C721.23 78.0185 721.494 78.1921 721.551 78.4625ZM1961.96 78.2012C1962.23 78.2487 1962.41 78.5077 1962.36 78.7797C1961.99 80.9234 1962.47 83.681 1963.8 86.6114C1963.91 86.8629 1963.8 87.1592 1963.55 87.2731C1963.3 87.387 1963 87.2755 1962.88 87.0239C1961.51 83.9827 1960.96 81.015 1961.38 78.6077C1961.43 78.3357 1961.69 78.1537 1961.96 78.2012ZM531.558 79.272C528.71 79.1851 525.902 79.2881 523.142 79.548C522.867 79.5739 522.623 79.372 522.597 79.097C522.571 78.8221 522.773 78.5783 523.048 78.5524C525.847 78.2889 528.696 78.1842 531.588 78.2724C531.864 78.2808 532.081 78.5114 532.073 78.7874C532.064 79.0634 531.834 79.2804 531.558 79.272ZM864.575 78.503C864.711 78.2632 865.017 78.1797 865.257 78.3166C867.423 79.553 869.615 80.8012 871.84 82.0554C872.08 82.1911 872.165 82.496 872.03 82.7365C871.894 82.9771 871.589 83.0621 871.349 82.9265C869.122 81.671 866.928 80.4218 864.761 79.1851C864.521 79.0482 864.438 78.7429 864.575 78.503ZM743.99 78.9706C744.092 78.7139 744.383 78.5884 744.639 78.6902C745.886 79.1847 747.092 79.7774 748.257 80.4763C749.295 81.099 750.253 81.7048 751.133 82.2933C751.362 82.4468 751.424 82.7574 751.271 82.9869C751.117 83.2164 750.806 83.278 750.577 83.1244C749.712 82.5461 748.768 81.949 747.743 81.3339C746.625 80.6635 745.467 80.0946 744.271 79.6197C744.014 79.5179 743.888 79.2272 743.99 78.9706ZM539.526 79.5128C539.571 79.2404 539.829 79.0563 540.101 79.1016C542.849 79.5585 545.627 80.2088 548.428 81.0792C548.692 81.1611 548.839 81.4413 548.757 81.705C548.675 81.9687 548.395 82.1161 548.131 82.0341C545.374 81.1775 542.641 80.5376 539.937 80.0881C539.665 80.0428 539.481 79.7852 539.526 79.5128ZM515.192 80.2167C515.248 80.4872 515.074 80.7516 514.803 80.8073C512.013 81.3818 509.284 82.0921 506.623 82.8998C506.359 82.98 506.079 82.8308 505.999 82.5666C505.919 82.3023 506.068 82.0231 506.332 81.9429C509.019 81.1273 511.778 80.4092 514.601 79.8278C514.872 79.7721 515.136 79.9463 515.192 80.2167ZM1615.44 80.5658C1615.61 80.3442 1615.92 80.298 1616.14 80.4628C1618.29 82.0583 1620.45 83.6145 1622.66 85.1016C1622.89 85.2558 1622.95 85.5665 1622.8 85.7956C1622.64 86.0247 1622.33 86.0854 1622.1 85.9312C1619.88 84.4327 1617.7 82.8669 1615.55 81.2653C1615.33 81.1006 1615.28 80.7874 1615.44 80.5658ZM1839.03 82.2875C1839.17 82.0504 1839.48 81.9729 1839.72 82.1144C1842.02 83.4906 1844.33 84.8406 1846.64 86.1527C1846.88 86.2891 1846.97 86.5944 1846.83 86.8344C1846.69 87.0745 1846.39 87.1585 1846.15 87.0221C1843.83 85.706 1841.52 84.3524 1839.21 82.9731C1838.97 82.8316 1838.89 82.5246 1839.03 82.2875ZM1710.66 82.3993C1710.8 82.6338 1710.73 82.9421 1710.5 83.088C1708.31 84.4477 1706.1 85.7673 1703.87 87.0284C1703.63 87.1643 1703.33 87.0796 1703.19 86.8393C1703.06 86.5989 1703.14 86.2938 1703.38 86.1579C1705.6 84.9048 1707.79 83.5924 1709.97 82.2388C1710.2 82.093 1710.51 82.1648 1710.66 82.3993ZM706.288 82.6236C706.374 82.8862 706.231 83.1684 705.968 83.254C703.527 84.0499 701.032 84.9027 698.486 85.7932C698.225 85.8843 697.94 85.7469 697.849 85.4862C697.758 85.2256 697.895 84.9403 698.156 84.8492C700.706 83.9574 703.208 83.1021 705.658 82.3033C705.921 82.2177 706.203 82.3611 706.288 82.6236ZM1974.66 82.4142C1974.88 82.5851 1974.92 82.8995 1974.74 83.1164C1973.44 84.7692 1971.54 86.518 1969.13 88.28C1968.91 88.4432 1968.6 88.3948 1968.43 88.1721C1968.27 87.9493 1968.32 87.6364 1968.54 87.4732C1970.9 85.7436 1972.73 84.0557 1973.96 82.4975C1974.13 82.2806 1974.44 82.2433 1974.66 82.4142ZM555.745 84.3948C555.861 84.144 556.158 84.0344 556.409 84.15C557.681 84.7365 558.958 85.3723 560.237 86.0595C561.469 86.7216 562.701 87.3623 563.932 87.982C564.178 88.1062 564.278 88.4068 564.154 88.6534C564.029 88.9001 563.729 88.9994 563.482 88.8752C562.243 88.2515 561.003 87.6067 559.763 86.9405C558.502 86.2627 557.244 85.6361 555.99 85.0582C555.739 84.9426 555.63 84.6456 555.745 84.3948ZM498.92 85.0153C499.019 85.273 498.891 85.5624 498.633 85.6617C495.938 86.7001 493.333 87.8051 490.827 88.9291C490.575 89.0421 490.28 88.9295 490.167 88.6776C490.054 88.4256 490.166 88.1297 490.418 88.0167C492.937 86.887 495.559 85.7748 498.274 84.7286C498.531 84.6293 498.821 84.7577 498.92 85.0153ZM1005.74 84.9785C1005.88 85.2199 1005.79 85.5243 1005.55 85.6583C1003.23 86.9454 1000.88 88.1954 998.497 89.4001C998.251 89.5248 997.95 89.426 997.825 89.1796C997.701 88.9332 997.799 88.6324 998.046 88.5078C1000.42 87.3091 1002.76 86.0652 1005.06 84.784C1005.3 84.65 1005.61 84.7371 1005.74 84.9785ZM877.778 85.9404C877.911 85.6984 878.215 85.6101 878.457 85.7431C880.638 86.9419 882.854 88.1407 885.109 89.3346C885.353 89.4638 885.446 89.7664 885.317 90.0104C885.187 90.2545 884.885 90.3475 884.641 90.2183C882.381 89.0217 880.161 87.8203 877.976 86.6194C877.734 86.4864 877.645 86.1824 877.778 85.9404ZM755.759 86.5468C755.957 86.3546 756.273 86.3594 756.466 86.5576C757.703 87.8334 758.488 89.0276 758.768 90.1278C759.057 91.2654 758.798 92.281 758.016 93.0949C757.825 93.294 757.508 93.3003 757.309 93.1089C757.11 92.9176 757.104 92.6011 757.295 92.402C757.828 91.8478 758.006 91.1914 757.799 90.3744C757.581 89.5199 756.934 88.4768 755.748 87.2539C755.556 87.0556 755.56 86.7391 755.759 86.5468ZM691.329 87.8002C691.422 88.0602 691.287 88.3464 691.027 88.4393L690.335 88.6867C688.114 89.4809 685.859 90.2871 683.573 91.0935C683.313 91.1854 683.027 91.0488 682.935 90.7884C682.844 90.528 682.98 90.2424 683.241 90.1505C685.525 89.3446 687.778 88.5388 690 87.7443L690.69 87.4977C690.95 87.4047 691.236 87.5402 691.329 87.8002ZM1628.76 89.5074C1628.9 89.2672 1629.2 89.1827 1629.44 89.3188C1631.74 90.6179 1634.1 91.8205 1636.56 92.898C1636.82 93.0087 1636.93 93.3035 1636.82 93.5565C1636.71 93.8095 1636.42 93.9248 1636.16 93.8141C1633.67 92.7213 1631.27 91.5028 1628.95 90.1889C1628.71 90.0528 1628.63 89.7477 1628.76 89.5074ZM1697.28 89.9772C1697.41 90.2248 1697.31 90.5247 1697.06 90.647C1694.74 91.7939 1692.39 92.8606 1690.02 93.8274C1689.77 93.9317 1689.47 93.809 1689.37 93.5533C1689.27 93.2977 1689.39 93.0058 1689.64 92.9015C1691.99 91.9447 1694.31 90.888 1696.61 89.7504C1696.86 89.6281 1697.16 89.7296 1697.28 89.9772ZM1852.98 90.2239C1853.11 89.9801 1853.42 89.8875 1853.66 90.0172C1856.05 91.2868 1858.43 92.5023 1860.79 93.6506C1861.04 93.7712 1861.15 94.0704 1861.03 94.3188C1860.91 94.5672 1860.61 94.6708 1860.36 94.5502C1857.98 93.396 1855.59 92.1748 1853.19 90.9001C1852.95 90.7705 1852.85 90.4678 1852.98 90.2239ZM1962.92 91.6569C1963.06 91.8982 1962.97 92.2026 1962.73 92.3369C1960.66 93.4871 1958.4 94.6199 1955.97 95.711C1955.72 95.8241 1955.42 95.7115 1955.31 95.4595C1955.2 95.2076 1955.31 94.9117 1955.56 94.7987C1957.97 93.7184 1960.2 92.5984 1962.24 91.463C1962.49 91.3287 1962.79 91.4155 1962.92 91.6569ZM570.809 91.7775C570.919 91.5244 571.214 91.4086 571.467 91.5189C574.044 92.6416 576.617 93.6743 579.184 94.6197C579.443 94.7151 579.576 95.0025 579.481 95.2616C579.385 95.5207 579.098 95.6535 578.839 95.5581C576.253 94.606 573.662 93.566 571.067 92.4356C570.814 92.3253 570.698 92.0307 570.809 91.7775ZM483.383 91.8692C483.504 92.1175 483.4 92.4168 483.152 92.5376C481.959 93.1182 480.793 93.6919 479.658 94.2501C478.227 94.9535 476.847 95.6324 475.526 96.2701C475.277 96.3901 474.978 96.2857 474.858 96.037C474.738 95.7883 474.842 95.4894 475.091 95.3694C476.413 94.7316 477.785 94.0569 479.209 93.3561C480.344 92.7983 481.511 92.2239 482.714 91.6384C482.963 91.5176 483.262 91.6209 483.383 91.8692ZM991.549 92.1916C991.663 92.4431 991.551 92.7394 991.3 92.8535C988.878 93.9519 986.428 94.9978 983.953 95.9835C983.696 96.0856 983.405 95.9605 983.303 95.7039C983.201 95.4474 983.326 95.1566 983.583 95.0544C986.043 94.0748 988.478 93.035 990.887 91.9427C991.138 91.8287 991.435 91.9401 991.549 92.1916ZM744.019 92.5777C744.21 92.3782 744.527 92.3713 744.726 92.5623C745.377 93.1856 746.002 93.6635 746.57 93.9829C747.142 94.3053 747.625 94.4484 748 94.4484C749.212 94.4484 750.32 94.4025 751.32 94.3126C751.595 94.2879 751.838 94.4909 751.863 94.7659C751.888 95.041 751.685 95.2839 751.41 95.3086C750.374 95.4016 749.236 95.4484 748 95.4484C747.389 95.4484 746.733 95.2227 746.079 94.8544C745.419 94.4831 744.728 93.9485 744.035 93.2846C743.835 93.0937 743.828 92.7771 744.019 92.5777ZM676.402 93.0499C676.491 93.3116 676.35 93.5953 676.088 93.6836C673.609 94.5209 671.096 95.3448 668.554 96.1418C668.29 96.2243 668.01 96.0777 667.927 95.8142C667.844 95.5507 667.991 95.2701 668.255 95.1875C670.789 94.3932 673.294 93.5716 675.769 92.7362C676.03 92.6478 676.314 92.7883 676.402 93.0499ZM891.157 93.0323C891.281 92.7858 891.582 92.6868 891.829 92.8112C892.949 93.3765 894.079 93.9395 895.22 94.4996C896.423 95.0899 897.626 95.6514 898.828 96.1848C899.081 96.2968 899.195 96.5922 899.083 96.8446C898.971 97.097 898.676 97.2109 898.423 97.0989C897.208 96.5602 895.994 95.9933 894.78 95.3973C893.635 94.8355 892.501 94.2708 891.378 93.704C891.131 93.5796 891.032 93.2788 891.157 93.0323ZM1967.62 93.3925C1967.83 93.2078 1968.15 93.2246 1968.33 93.4299C1970.07 95.3628 1972.16 97.19 1974.59 98.7683C1974.82 98.919 1974.89 99.2287 1974.73 99.4601C1974.58 99.6916 1974.27 99.7571 1974.04 99.6065C1971.54 97.9794 1969.38 96.0948 1967.59 94.0986C1967.4 93.8933 1967.42 93.5772 1967.62 93.3925ZM1683.08 95.8121C1683.16 96.0761 1683.01 96.3559 1682.75 96.4371C1680.27 97.1987 1677.77 97.8347 1675.24 98.3238C1674.97 98.3762 1674.71 98.199 1674.66 97.9279C1674.6 97.6568 1674.78 97.3945 1675.05 97.342C1677.54 96.8602 1680.01 96.2332 1682.45 95.4813C1682.72 95.4001 1683 95.5482 1683.08 95.8121ZM1643.4 95.9884C1643.48 95.7241 1643.76 95.5744 1644.03 95.6542C1646.5 96.3992 1649.07 97.0144 1651.77 97.477C1652.04 97.5236 1652.23 97.7821 1652.18 98.0542C1652.13 98.3264 1651.87 98.5093 1651.6 98.4627C1648.86 97.9929 1646.25 97.3682 1643.74 96.6116C1643.47 96.5318 1643.32 96.2528 1643.4 95.9884ZM1867.42 97.2429C1867.53 96.989 1867.82 96.8711 1868.07 96.9796C1869.31 97.5084 1870.54 98.0143 1871.77 98.4954C1872.93 98.9537 1874.1 99.3848 1875.28 99.7897C1875.54 99.8797 1875.68 100.164 1875.59 100.425C1875.5 100.686 1875.21 100.825 1874.95 100.735C1873.76 100.326 1872.58 99.8896 1871.4 99.4261C1870.17 98.9413 1868.93 98.4316 1867.68 97.8992C1867.43 97.7906 1867.31 97.4968 1867.42 97.2429ZM586.454 97.5934C586.534 97.329 586.813 97.1791 587.077 97.2586C589.763 98.0665 592.442 98.7808 595.112 99.4045C595.381 99.4673 595.548 99.7362 595.485 100.005C595.422 100.274 595.154 100.441 594.885 100.378C592.194 99.7498 589.495 99.0301 586.789 98.2162C586.525 98.1367 586.375 97.8578 586.454 97.5934ZM661.3 97.7884C661.375 98.0543 661.22 98.3304 660.954 98.405C659.685 98.7616 658.409 99.1086 657.127 99.4445C655.777 99.798 654.42 100.131 653.057 100.443C652.788 100.505 652.52 100.337 652.458 100.068C652.397 99.7986 652.565 99.5304 652.834 99.4687C654.187 99.1588 655.533 98.828 656.873 98.4771C658.15 98.1428 659.42 97.7974 660.684 97.4423C660.95 97.3676 661.226 97.5226 661.3 97.7884ZM1949.28 97.9079C1949.37 98.1671 1949.24 98.4544 1948.98 98.5494C1946.69 99.3886 1944.3 100.183 1941.81 100.918C1941.55 100.997 1941.27 100.846 1941.19 100.581C1941.11 100.316 1941.26 100.038 1941.53 99.9594C1943.99 99.2302 1946.37 98.4424 1948.64 97.6105C1948.9 97.5155 1949.18 97.6486 1949.28 97.9079ZM976.772 98.1148C976.861 98.3763 976.721 98.6602 976.459 98.749C973.937 99.6055 971.391 100.394 968.825 101.106C968.559 101.18 968.283 101.024 968.21 100.758C968.136 100.492 968.292 100.216 968.558 100.143C971.105 99.4356 973.632 98.6528 976.138 97.8021C976.399 97.7133 976.683 97.8533 976.772 98.1148ZM1668.03 98.7976C1668.05 99.0731 1667.84 99.3115 1667.57 99.3299C1666.28 99.4163 1664.99 99.4608 1663.69 99.4608C1662.31 99.4608 1660.96 99.4246 1659.64 99.3541C1659.36 99.3394 1659.15 99.1039 1659.17 98.8282C1659.18 98.5524 1659.42 98.3408 1659.69 98.3555C1660.99 98.425 1662.33 98.4608 1663.69 98.4608C1664.96 98.4608 1666.23 98.4171 1667.5 98.3322C1667.77 98.3137 1668.01 98.5221 1668.03 98.7976ZM905.54 99.4075C905.631 99.1469 905.917 99.0098 906.177 99.1013C908.706 99.989 911.233 100.758 913.756 101.416C914.023 101.486 914.183 101.759 914.113 102.026C914.044 102.293 913.771 102.453 913.503 102.384C910.954 101.719 908.401 100.942 905.846 100.045C905.586 99.9534 905.449 99.668 905.54 99.4075ZM602.692 101.447C602.738 101.174 602.995 100.99 603.268 101.036C606.028 101.496 608.777 101.861 611.512 102.134C611.787 102.162 611.988 102.407 611.96 102.682C611.933 102.956 611.688 103.157 611.413 103.129C608.655 102.854 605.885 102.486 603.103 102.022C602.831 101.977 602.647 101.719 602.692 101.447ZM645.246 101.484C645.291 101.757 645.106 102.014 644.833 102.058C642.085 102.509 639.314 102.873 636.522 103.147C636.247 103.174 636.003 102.973 635.976 102.698C635.949 102.423 636.15 102.178 636.425 102.151C639.194 101.879 641.944 101.518 644.672 101.072C644.944 101.027 645.201 101.212 645.246 101.484ZM1934.89 102.238C1934.95 102.507 1934.78 102.776 1934.51 102.838C1932.11 103.393 1929.64 103.887 1927.12 104.31C1926.85 104.356 1926.59 104.172 1926.55 103.9C1926.5 103.627 1926.68 103.37 1926.96 103.324C1929.46 102.904 1931.9 102.414 1934.29 101.864C1934.56 101.802 1934.83 101.969 1934.89 102.238ZM1881.82 102.289C1881.89 102.021 1882.16 101.86 1882.43 101.928C1884.86 102.549 1887.3 103.066 1889.74 103.488C1890.01 103.535 1890.19 103.794 1890.15 104.066C1890.1 104.338 1889.84 104.521 1889.57 104.474C1887.1 104.047 1884.64 103.524 1882.18 102.897C1881.91 102.829 1881.75 102.556 1881.82 102.289ZM961.448 102.415C961.505 102.685 961.333 102.95 961.062 103.008C958.457 103.56 955.832 104.028 953.191 104.404C952.918 104.443 952.664 104.253 952.626 103.98C952.587 103.707 952.777 103.453 953.05 103.414C955.668 103.041 958.27 102.577 960.855 102.029C961.125 101.972 961.391 102.145 961.448 102.415ZM1981.36 102.658C1981.45 102.396 1981.73 102.255 1981.99 102.343C1984.47 103.174 1987.17 103.749 1990.06 103.986C1990.34 104.009 1990.54 104.25 1990.52 104.526C1990.5 104.801 1990.25 105.006 1989.98 104.983C1987 104.739 1984.23 104.148 1981.68 103.291C1981.41 103.203 1981.27 102.92 1981.36 102.658ZM619.293 103.171C619.303 102.895 619.534 102.679 619.81 102.688C622.598 102.782 625.37 102.783 628.125 102.693C628.401 102.684 628.632 102.901 628.641 103.177C628.65 103.453 628.434 103.684 628.158 103.693C625.381 103.783 622.586 103.782 619.776 103.688C619.5 103.679 619.284 103.447 619.293 103.171ZM2004.74 101.973C2004.8 102.242 2004.63 102.511 2004.36 102.572C2003 103 1999.8 104.565 1998.43 104.746C1998.16 104.783 1997.91 104.59 1997.87 104.317C1997.84 104.043 1998.25 103.791 1998.53 103.755C2000 103 2002.5 102 2004.25 101.585C2004.52 101.523 2004.67 101.704 2004.74 101.973ZM920.918 103.499C920.965 103.227 921.223 103.045 921.495 103.092C924.117 103.545 926.732 103.884 929.339 104.116C929.614 104.14 929.817 104.383 929.793 104.658C929.768 104.933 929.525 105.136 929.25 105.112C926.616 104.878 923.974 104.535 921.325 104.077C921.053 104.03 920.87 103.771 920.918 103.499ZM945.704 104.715C945.723 104.99 945.515 105.229 945.239 105.248C942.588 105.432 939.923 105.517 937.246 105.496C936.97 105.494 936.748 105.268 936.75 104.992C936.752 104.716 936.978 104.494 937.254 104.496C939.904 104.517 942.544 104.432 945.17 104.251C945.446 104.232 945.685 104.439 945.704 104.715ZM1920.09 104.782C1920.12 105.056 1919.92 105.303 1919.64 105.331C1917.17 105.591 1914.66 105.777 1912.12 105.881C1911.85 105.893 1911.62 105.678 1911.6 105.402C1911.59 105.126 1911.81 104.893 1912.08 104.882C1914.6 104.779 1917.09 104.594 1919.54 104.337C1919.81 104.308 1920.06 104.507 1920.09 104.782ZM1896.6 104.933C1896.62 104.658 1896.87 104.457 1897.14 104.483C1899.64 104.726 1902.13 104.875 1904.6 104.94C1904.88 104.947 1905.1 105.176 1905.09 105.452C1905.08 105.729 1904.85 105.946 1904.58 105.939C1902.08 105.874 1899.57 105.723 1897.05 105.479C1896.77 105.452 1896.57 105.208 1896.6 104.933Z" fill="white"/>
<path fill-rule="evenodd" clip-rule="evenodd" d="M237.322 45.5571C234.858 45.3958 232.352 45.5803 229.802 46.0595C229.53 46.1105 229.269 45.9318 229.218 45.6604C229.167 45.389 229.346 45.1277 229.617 45.0767C232.239 44.5841 234.829 44.3918 237.387 44.5592C237.663 44.5772 237.871 44.8152 237.853 45.0908C237.835 45.3663 237.597 45.5751 237.322 45.5571ZM244.369 46.508C244.467 46.2501 244.756 46.1208 245.014 46.2194C246.207 46.6752 247.39 47.2265 248.564 47.8792C249.709 48.5157 250.873 49.1778 252.053 49.8625C252.292 50.001 252.374 50.307 252.235 50.5458C252.097 50.7847 251.791 50.8661 251.552 50.7275C250.376 50.0455 249.217 49.3865 248.078 48.7532C246.945 48.1231 245.805 47.592 244.657 47.1535C244.399 47.055 244.27 46.766 244.369 46.508ZM222.793 47.5027C222.89 47.7613 222.759 48.0495 222.5 48.1464C220.209 49.0049 217.886 50.049 215.529 51.2439C215.283 51.3687 214.982 51.2703 214.857 51.024C214.732 50.7777 214.831 50.4768 215.077 50.3519C217.46 49.1437 219.818 48.0838 222.149 47.21C222.408 47.1131 222.696 47.2442 222.793 47.5027ZM7.17285 48.3161C7.17285 48.0399 7.39671 47.8161 7.67285 47.8161C9.05196 47.8161 10.4034 47.8448 11.7284 47.9008C12.0043 47.9125 12.2185 48.1456 12.2068 48.4215C12.1952 48.6974 11.962 48.9116 11.6861 48.8999C10.3754 48.8445 9.03807 48.8161 7.67285 48.8161C7.39671 48.8161 7.17285 48.5922 7.17285 48.3161ZM19.2079 49.0356C19.245 48.7619 19.4968 48.5701 19.7705 48.6072C22.5293 48.9811 25.1658 49.4799 27.6947 50.0876C27.9632 50.1521 28.1286 50.4221 28.0641 50.6906C27.9996 50.9591 27.7296 51.1244 27.4611 51.0599C24.965 50.4601 22.3616 49.9675 19.6362 49.5982C19.3626 49.5611 19.1708 49.3092 19.2079 49.0356ZM34.7915 52.6855C34.8838 52.4253 35.1696 52.2891 35.4298 52.3814C38.0265 53.3023 40.5064 54.3379 42.89 55.4653C43.1396 55.5833 43.2463 55.8814 43.1282 56.131C43.0102 56.3807 42.7121 56.4873 42.4625 56.3692C40.1073 55.2554 37.6586 54.2328 35.0956 53.3239C34.8354 53.2316 34.6992 52.9458 34.7915 52.6855ZM258.265 54.1526C258.41 53.9172 258.717 53.8433 258.953 53.9877C261.18 55.3533 263.455 56.7756 265.771 58.2388C266.004 58.3863 266.074 58.6951 265.926 58.9286C265.779 59.162 265.47 59.2316 265.236 59.0841C262.924 57.6225 260.652 56.2027 258.43 54.8402C258.195 54.6959 258.121 54.388 258.265 54.1526ZM209.015 54.2692C209.156 54.5063 209.079 54.8133 208.842 54.9549C206.703 56.2323 204.54 57.6008 202.35 59.0357C202.119 59.1871 201.809 59.1226 201.658 58.8916C201.506 58.6606 201.571 58.3507 201.802 58.1993C204 56.7588 206.176 55.3826 208.329 54.0964C208.566 53.9548 208.873 54.0321 209.015 54.2692ZM49.3354 59.4219C49.475 59.1836 49.7814 59.1037 50.0196 59.2433C52.3638 60.6167 54.6233 62.0664 56.8225 63.5644C57.0508 63.7199 57.1098 64.0309 56.9543 64.2591C56.7989 64.4874 56.4878 64.5464 56.2596 64.3909C54.0755 62.9033 51.8354 61.4661 49.5141 60.1061C49.2758 59.9665 49.1959 59.6602 49.3354 59.4219ZM196.103 62.6331C196.26 62.8607 196.202 63.172 195.975 63.3284C193.893 64.759 191.791 66.2254 189.665 67.7084C189.439 67.8664 189.127 67.8109 188.969 67.5845C188.811 67.358 188.867 67.0463 189.093 66.8883C191.218 65.4056 193.324 63.9372 195.408 62.5043C195.636 62.3479 195.947 62.4056 196.103 62.6331ZM271.854 62.7048C272.003 62.4722 272.312 62.4044 272.545 62.5533C273.602 63.2303 274.664 63.9114 275.732 64.5962C276.914 65.354 278.103 66.1162 279.3 66.8823C279.533 67.0312 279.6 67.3404 279.452 67.573C279.303 67.8056 278.993 67.8734 278.761 67.7246C277.568 66.9607 276.379 66.1987 275.198 65.4413C274.127 64.7547 273.062 64.072 272.006 63.3955C271.773 63.2466 271.705 62.9373 271.854 62.7048ZM62.665 68.352C62.83 68.1306 63.1433 68.0849 63.3647 68.25C65.4896 69.8341 67.5804 71.4399 69.66 73.0371L69.7586 73.1129C69.9776 73.2811 70.0188 73.595 69.8506 73.814C69.6824 74.033 69.3685 74.0742 69.1495 73.9059L69.0535 73.8322C66.9722 72.2337 64.8862 70.6315 62.767 69.0517C62.5456 68.8867 62.4999 68.5734 62.665 68.352ZM427.713 70.8142C428.965 70.7731 430.404 70.961 432.03 71.4046C433.594 71.8311 434.784 72.4399 435.582 73.2309C435.778 73.4253 435.779 73.7419 435.585 73.938C435.391 74.1342 435.074 74.1356 434.878 73.9412C434.246 73.3148 433.236 72.7699 431.767 72.3694C430.212 71.9454 428.876 71.7765 427.746 71.8137C427.47 71.8228 427.239 71.6064 427.23 71.3304C427.22 71.0544 427.437 70.8233 427.713 70.8142ZM285.379 71.3486C285.526 71.1153 285.835 71.0457 286.069 71.1934C288.321 72.6181 290.589 74.0403 292.867 75.4485C293.102 75.5937 293.174 75.9018 293.029 76.1367C292.884 76.3716 292.576 76.4443 292.341 76.2991C290.059 74.8887 287.788 73.4646 285.534 72.0385C285.301 71.8909 285.231 71.582 285.379 71.3486ZM183.476 71.4028C183.633 71.6302 183.575 71.9415 183.348 72.0982C181.245 73.5474 179.121 74.9932 176.975 76.417C176.745 76.5697 176.434 76.5069 176.282 76.2768C176.129 76.0467 176.192 75.7364 176.422 75.5837C178.561 74.1642 180.681 72.7219 182.781 71.2748C183.008 71.1181 183.319 71.1754 183.476 71.4028ZM422.17 75.8775C422.445 75.904 422.647 76.1484 422.62 76.4232C422.413 78.5696 423.069 81.3017 424.57 84.1853C424.697 84.4303 424.602 84.7322 424.357 84.8596C424.112 84.9871 423.81 84.8918 423.683 84.6468C422.129 81.661 421.393 78.7312 421.625 76.3272C421.651 76.0523 421.896 75.851 422.17 75.8775ZM75.4434 78.0658C75.6081 77.8442 75.9213 77.798 76.143 77.9628C78.2895 79.5583 80.453 81.1145 82.6624 82.6016C82.8914 82.7558 82.9522 83.0665 82.798 83.2956C82.6438 83.5247 82.3331 83.5854 82.104 83.4312C79.8778 81.9327 77.7009 80.3669 75.5464 78.7653C75.3248 78.6006 75.2787 78.2874 75.4434 78.0658ZM299.032 79.7875C299.174 79.5504 299.481 79.4729 299.718 79.6144C302.023 80.9906 304.333 82.3406 306.642 83.6527C306.882 83.7891 306.966 84.0944 306.83 84.3344C306.693 84.5745 306.388 84.6585 306.148 84.5221C303.832 83.206 301.516 81.8524 299.205 80.4731C298.968 80.3316 298.891 80.0246 299.032 79.7875ZM170.658 79.8993C170.804 80.1338 170.733 80.4421 170.498 80.588C168.312 81.9477 166.104 83.2673 163.874 84.5284C163.634 84.6643 163.329 84.5796 163.193 84.3393C163.057 84.0989 163.142 83.7938 163.382 83.6579C165.598 82.4048 167.794 81.0924 169.97 79.7388C170.204 79.593 170.513 79.6648 170.658 79.8993ZM434.661 79.9142C434.878 80.0851 434.915 80.3995 434.744 80.6164C433.442 82.2692 431.537 84.018 429.132 85.78C428.909 85.9432 428.596 85.8948 428.433 85.6721C428.269 85.4493 428.318 85.1364 428.541 84.9732C430.902 83.2436 432.731 81.5557 433.959 79.9975C434.13 79.7806 434.444 79.7433 434.661 79.9142ZM88.7622 87.0074C88.8983 86.7672 89.2034 86.6827 89.4437 86.8188C91.7368 88.1179 94.1009 89.3205 96.5627 90.398C96.8157 90.5087 96.931 90.8035 96.8203 91.0565C96.7095 91.3095 96.4147 91.4248 96.1617 91.3141C93.6649 90.2213 91.2701 89.0028 88.9508 87.6889C88.7105 87.5528 88.6261 87.2477 88.7622 87.0074ZM157.284 87.4772C157.406 87.7248 157.305 88.0247 157.057 88.147C154.736 89.2939 152.391 90.3606 150.021 91.3274C149.766 91.4317 149.474 91.309 149.369 91.0533C149.265 90.7977 149.388 90.5058 149.643 90.4015C151.988 89.4447 154.312 88.388 156.614 87.2504C156.862 87.1281 157.162 87.2296 157.284 87.4772ZM312.984 87.7239C313.113 87.4801 313.416 87.3875 313.66 87.5172C316.048 88.7868 318.428 90.0023 320.794 91.1506C321.042 91.2712 321.146 91.5704 321.025 91.8188C320.905 92.0672 320.605 92.1708 320.357 92.0502C317.979 90.896 315.588 89.6748 313.191 88.4001C312.947 88.2705 312.854 87.9678 312.984 87.7239ZM422.923 89.1569C423.058 89.3982 422.971 89.7026 422.73 89.8369C420.662 90.9871 418.4 92.1199 415.969 93.211C415.717 93.3241 415.421 93.2115 415.308 92.9595C415.195 92.7076 415.307 92.4117 415.559 92.2987C417.966 91.2184 420.202 90.0984 422.243 88.963C422.485 88.8287 422.789 88.9155 422.923 89.1569ZM428.734 90.8065C428.932 90.6139 429.248 90.618 429.441 90.8159C431.262 92.6858 433.424 94.4487 435.902 95.9688C436.137 96.1132 436.211 96.4211 436.066 96.6564C435.922 96.8918 435.614 96.9655 435.379 96.8211C432.829 95.2566 430.602 93.4414 428.725 91.5136C428.532 91.3158 428.536 90.9992 428.734 90.8065ZM143.078 93.3121C143.159 93.5761 143.011 93.8559 142.747 93.9371C140.271 94.6987 137.77 95.3347 135.243 95.8238C134.972 95.8762 134.709 95.699 134.657 95.4279C134.604 95.1568 134.782 94.8945 135.053 94.842C137.542 94.3602 140.009 93.7332 142.453 92.9813C142.717 92.9001 142.997 93.0482 143.078 93.3121ZM103.404 93.4884C103.484 93.2241 103.763 93.0744 104.027 93.1542C106.495 93.8992 109.07 94.5144 111.771 94.977C112.043 95.0236 112.226 95.2821 112.179 95.5542C112.133 95.8264 111.874 96.0093 111.602 95.9627C108.859 95.4929 106.245 94.8682 103.738 94.1116C103.474 94.0318 103.324 93.7528 103.404 93.4884ZM327.416 94.7429C327.525 94.489 327.819 94.3711 328.072 94.4796C329.31 95.0084 330.542 95.5143 331.766 95.9954C332.933 96.4537 334.104 96.8848 335.278 97.2897C335.539 97.3797 335.678 97.6643 335.588 97.9253C335.498 98.1864 335.213 98.3251 334.952 98.2351C333.764 97.8257 332.58 97.3896 331.4 96.9261C330.166 96.4413 328.926 95.9316 327.68 95.3992C327.426 95.2906 327.308 94.9968 327.416 94.7429ZM409.277 95.4079C409.373 95.6671 409.239 95.9544 408.98 96.0494C406.691 96.8886 404.297 97.6831 401.812 98.4183C401.548 98.4967 401.269 98.3455 401.191 98.0807C401.113 97.816 401.264 97.5378 401.529 97.4594C403.993 96.7302 406.367 95.9424 408.636 95.1105C408.895 95.0155 409.182 95.1486 409.277 95.4079ZM128.031 96.2976C128.05 96.5731 127.842 96.8115 127.566 96.8299C126.28 96.9163 124.987 96.9608 123.688 96.9608C122.308 96.9608 120.959 96.9246 119.638 96.8541C119.362 96.8394 119.15 96.6039 119.165 96.3282C119.18 96.0524 119.415 95.8408 119.691 95.8555C120.994 95.925 122.326 95.9608 123.688 95.9608C124.964 95.9608 126.235 95.9171 127.499 95.8322C127.775 95.8137 128.013 96.0221 128.031 96.2976ZM394.887 99.7384C394.949 100.007 394.781 100.276 394.512 100.338C392.109 100.893 389.642 101.387 387.123 101.81C386.85 101.856 386.592 101.672 386.547 101.4C386.501 101.127 386.685 100.87 386.957 100.824C389.456 100.404 391.903 99.9138 394.287 99.3636C394.556 99.3015 394.825 99.4693 394.887 99.7384ZM442.777 99.73C442.861 99.467 443.142 99.3219 443.405 99.4059C445.914 100.208 448.623 100.759 451.519 100.982C451.794 101.003 452 101.244 451.979 101.519C451.958 101.794 451.718 102 451.442 101.979C448.467 101.75 445.682 101.183 443.101 100.358C442.838 100.274 442.693 99.993 442.777 99.73ZM341.818 99.7887C341.886 99.5211 342.159 99.3596 342.426 99.4279C344.859 100.049 347.299 100.566 349.738 100.988C350.011 101.035 350.193 101.294 350.146 101.566C350.099 101.838 349.84 102.021 349.568 101.974C347.104 101.547 344.638 101.024 342.179 100.397C341.911 100.329 341.75 100.056 341.818 99.7887ZM467.375 99.4008C467.437 99.6699 467.269 99.9382 467 100C465.575 100.327 461.289 101.54 459.922 101.722C459.648 101.759 459.397 101.566 459.36 101.293C459.324 101.019 459.516 100.768 459.79 100.731C461.126 100.553 465.38 99.346 466.776 99.0254C467.045 98.9636 467.314 99.1316 467.375 99.4008ZM380.087 102.282C380.116 102.556 379.916 102.803 379.642 102.831C377.171 103.091 374.662 103.277 372.125 103.381C371.849 103.393 371.616 103.178 371.605 102.902C371.593 102.626 371.808 102.393 372.084 102.382C374.599 102.279 377.087 102.094 379.537 101.837C379.812 101.808 380.058 102.007 380.087 102.282ZM356.597 102.433C356.624 102.158 356.868 101.957 357.143 101.983C359.641 102.226 362.131 102.375 364.604 102.44C364.88 102.447 365.098 102.676 365.091 102.952C365.083 103.229 364.854 103.446 364.578 103.439C362.082 103.374 359.569 103.223 357.046 102.979C356.772 102.952 356.57 102.708 356.597 102.433Z" fill="white"/>
</svg>
